<?xml version="1.0" encoding="utf-8"?>
<!-- Generator: Adobe Illustrator 21.0.0, SVG Export Plug-In . SVG Version: 6.00 Build 0)  -->
<svg version="1.1" id="Layer_1" xmlns="http://www.w3.org/2000/svg" xmlns:xlink="http://www.w3.org/1999/xlink" x="0px" y="0px"
	 viewBox="0 0 456 456" style="enable-background:new 0 0 456 456;" xml:space="preserve">
<style type="text/css">
	.st0{fill:#263238;}
	.st1{fill:#F8A454;}
</style>
<path class="st1" d="M361.9,368.7c-1,0-2.1-0.4-2.8-1.2l-17-17c-8-8-19.4-11.8-30.5-10.2c-13.2,1.9-26-6.4-29.5-19.4l-2-7.3
	c-1.1-4.1,0.1-8.6,3.1-11.6l21.2-21.2c3.5-3.5,8.7-4.5,13.2-2.6l4.5,1.9c20.1,8.6,34.3,26.7,37.9,48.3l5.9,35.5
	c0.3,1.7-0.6,3.4-2.1,4.2C363.1,368.6,362.5,368.7,361.9,368.7z M316.6,332c11.6,0,22.9,4.6,31.2,12.9l8.1,8.1l-3.9-23.2
	c-3.2-18.9-15.6-34.7-33.2-42.3l-4.5-1.9c-1.5-0.6-3.2-0.3-4.4,0.8l-21.2,21.2c-1,1-1.4,2.5-1,3.9l2,7.3c2.5,9,11.4,14.9,20.6,13.6
	C312.5,332.2,314.5,332,316.6,332z"/>
<path class="st1" d="M90.7,369.3c-1,0-2.1-0.4-2.8-1.2c-1.2-1.2-1.5-2.9-0.8-4.4l33.9-79.2c0.5-1.2,1.6-2.1,2.9-2.4
	c1.3-0.2,2.6,0.2,3.6,1.1l45.3,45.3c0.9,0.9,1.4,2.3,1.1,3.6c-0.3,1.3-1.1,2.4-2.4,2.9L92.3,369C91.8,369.2,91.2,369.3,90.7,369.3z
	 M126,293.1l-27.7,64.6l64.6-27.7L126,293.1z"/>
<path class="st1" d="M90.7,369.3c-0.5,0-1.1-0.1-1.6-0.3c-2-0.9-3-3.2-2.1-5.3l15.3-35.7c0.5-1.2,1.6-2.1,2.9-2.4
	c1.3-0.3,2.6,0.2,3.6,1.1l20.4,20.4c1.6,1.6,1.6,4.1,0,5.7c-1.6,1.6-4.1,1.6-5.7,0l-16.2-16.2l-13,30.3
	C93.8,368.4,92.3,369.3,90.7,369.3z"/>
<path class="st1" d="M169.9,335.3c-1,0-2.1-0.4-2.8-1.2l-45.3-45.3c-1.6-1.6-1.6-4.1,0-5.7L311.3,93.8c9.4-9.4,24.6-9.4,33.9,0
	l17,17c9.4,9.4,9.4,24.6,0,33.9L172.7,334.2C172,334.9,170.9,335.3,169.9,335.3z M130.3,286.1l39.6,39.6L356.6,139
	c6.2-6.2,6.2-16.4,0-22.6l-17-17c-6.2-6.2-16.4-6.2-22.6,0L130.3,286.1z M359.4,141.8L359.4,141.8L359.4,141.8z"/>
<path class="st1" d="M311.3,193.9c-1,0-2-0.4-2.8-1.2l-45.3-45.3c-0.8-0.8-1.2-1.8-1.2-2.8s0.4-2.1,1.2-2.8l33.9-33.9
	c1.6-1.6,4.1-1.6,5.7,0l45.3,45.3c0.8,0.8,1.2,1.8,1.2,2.8c0,1.1-0.4,2.1-1.2,2.8l-33.9,33.9C313.4,193.5,312.4,193.9,311.3,193.9z
	 M271.7,144.7l39.6,39.6l28.3-28.3L300,116.4L271.7,144.7z"/>
<path class="st1" d="M173.4,218.7c-1.1,0-2.2-0.4-3-1.3l-74.1-80.8c-8.7-9.4-8.4-24,0.6-33.1l9.1-9.1c9.1-9.2,23.7-9.6,33.3-0.8
	l80.8,74.1c1.6,1.5,1.7,4,0.3,5.7c-1.5,1.6-4,1.7-5.7,0.2L134,99.5c-6.4-5.8-16.1-5.6-22.2,0.5l-9.1,9.1c-6,6.1-6.2,15.8-0.4,22.1
	l74.1,80.8c1.5,1.6,1.4,4.2-0.2,5.7C175.4,218.3,174.4,218.7,173.4,218.7z"/>
<path class="st1" d="M274.2,298c-0.8,0-1.7-0.3-2.4-0.8l-25.5-18.9c-1.8-1.3-2.1-3.8-0.8-5.6c1.3-1.8,3.8-2.1,5.6-0.8l22.7,16.8
	l17.7-17.7l-16.8-22.7c-1.3-1.8-0.9-4.3,0.8-5.6c1.8-1.3,4.3-0.9,5.6,0.8L300,269c1.2,1.6,1,3.8-0.4,5.2L277,296.9
	C276.3,297.6,275.2,298,274.2,298z"/>
</svg>
