<svg id="Layer_1" data-name="Layer 1" xmlns="http://www.w3.org/2000/svg" viewBox="0 0 144 144"><defs><style>.cls-1{fill:#fabf99;}.cls-2{fill:#f3f3f3;}</style></defs><title>Aprocode_logo-01</title><path class="cls-1" d="M137.63,137.63H6.38V6.38H137.63Zm-130.25-1H136.63V7.38H7.38Z"/><path class="cls-1" d="M55.71,72.87H47.11v-1.2h1.65l-1.2-13.46H42.8L41.48,71.67h1.65v1.2h-5v-1.2h1.65l4.66-45.19h5.31l4.3,45.19h1.65ZM47.49,57.05,45.29,32,42.87,57.05Zm3.91,14.62-4.17-44H45.91l4.17,44Z"/><path class="cls-1" d="M74.25,46.25A6.07,6.07,0,0,1,71.92,51a8.37,8.37,0,0,1-5.63,2H64V71.67h1.65v1.2H57v-1.2h1.65v-44H57v-1.2h9.25a8.37,8.37,0,0,1,5.63,2,6.07,6.07,0,0,1,2.33,4.77ZM61.34,71.67v-44H60v44Zm7.6-22.52V30.33a2.65,2.65,0,0,0-2.65-2.65H64V51.81h2.3a2.65,2.65,0,0,0,2.65-2.65Zm2.65-1.88V32.21A4.68,4.68,0,0,0,69.23,28a4.78,4.78,0,0,1,1,3.23v17a4.77,4.77,0,0,1-1,3.23A4.68,4.68,0,0,0,71.6,47.28Z"/><path class="cls-1" d="M95.44,72.87h-2.3q-4.66,0-4.66-4.85V51.62A2.65,2.65,0,0,0,85.83,49h-2.3V71.67h1.65v1.2h-8.6v-1.2h1.65v-44H76.58v-1.2h9.25a8.37,8.37,0,0,1,5.63,2,6.07,6.07,0,0,1,2.33,4.77v9q0,4.34-4.63,6.15,4.63,1.94,4.63,6.18V69.9q0,1.78,1.52,1.78h.13Zm-14.56-1.2v-44H79.55v44Zm7.6-26.56V30.33a2.65,2.65,0,0,0-2.65-2.65h-2.3V47.77h2.3a2.65,2.65,0,0,0,2.65-2.65Zm2.65-1.84V32.21A4.68,4.68,0,0,0,88.78,28a4.78,4.78,0,0,1,1,3.23V44.18a4.91,4.91,0,0,1-1,3.27A4.73,4.73,0,0,0,91.14,43.27ZM92.46,72a3,3,0,0,1-1.33-2.85V53.46a4.73,4.73,0,0,0-2.36-4.17,4.86,4.86,0,0,1,1,3.23v16Q89.81,71.55,92.46,72Z"/><path class="cls-1" d="M105.86,72.87H97.25v-1.2H98.9v-44H97.25v-1.2h8.61v1.2h-1.65v44h1.65Zm-4.3-1.2v-44h-1.33v44Z"/><path class="cls-2" d="M52.41,111.46a5.45,5.45,0,0,1-2.09,4.28,8,8,0,0,1-10.08,0,5.43,5.43,0,0,1-2.1-4.28v-30a5.43,5.43,0,0,1,2.1-4.28,8,8,0,0,1,10.08,0,5.45,5.45,0,0,1,2.09,4.28v6.7H47.66V78.81a2.38,2.38,0,1,0-4.76,0v35.26a2.38,2.38,0,1,0,4.76,0v-9.31h4.76Zm-11.11,4a4.93,4.93,0,0,1-.78-2.87V80.29a4.88,4.88,0,0,1,.78-2.84,4.11,4.11,0,0,0-2,3.57v30.88A4.16,4.16,0,0,0,41.3,115.46ZM50,87.07V80.46a4.23,4.23,0,0,0-2.15-3.74,4.31,4.31,0,0,1,1,2.93v7.42Zm0,25.35v-6.58H48.84v7.42a4.27,4.27,0,0,1-1,2.9A4.22,4.22,0,0,0,50,112.42Z"/><path class="cls-2" d="M70.22,111.46a5.44,5.44,0,0,1-2.09,4.28,8,8,0,0,1-10.08,0,5.43,5.43,0,0,1-2.1-4.28v-30a5.43,5.43,0,0,1,2.1-4.28,8,8,0,0,1,10.08,0,5.44,5.44,0,0,1,2.09,4.28Zm-11.11,4a4.93,4.93,0,0,1-.78-2.87V80.29a4.88,4.88,0,0,1,.78-2.84,4.11,4.11,0,0,0-2,3.57v30.88A4.16,4.16,0,0,0,59.11,115.46Zm6.35-1.39V78.81a2.38,2.38,0,1,0-4.76,0v35.26a2.38,2.38,0,1,0,4.76,0Zm2.38-1.65v-32a4.23,4.23,0,0,0-2.15-3.74,4.31,4.31,0,0,1,1,2.93v33.61a4.27,4.27,0,0,1-1,2.9A4.22,4.22,0,0,0,67.84,112.42Z"/><path class="cls-2" d="M88.31,111.17a5.44,5.44,0,0,1-2.09,4.28,7.51,7.51,0,0,1-5,1.78H72.89v-1.07h1.48V76.72H72.89V75.65h8.29a7.5,7.5,0,0,1,5,1.78,5.44,5.44,0,0,1,2.09,4.28Zm-11.57,5V76.72H75.55v39.44Zm6.81-2.38V79.1a2.38,2.38,0,0,0-2.38-2.38H79.12v39.44h2.06a2.37,2.37,0,0,0,2.38-2.38Zm2.38-1.65V80.78A4.19,4.19,0,0,0,83.82,77a4.28,4.28,0,0,1,.93,2.9v33a4.35,4.35,0,0,1-.93,2.9A4.24,4.24,0,0,0,85.93,112.13Z"/><path class="cls-2" d="M105.86,117.23H91v-1.07h1.48V76.72H91V75.65h14.85V88.12H101.1V76.72H97.24v18h5.63V95.8H97.24v20.36h3.86v-11.4h4.76Zm-11-1.07V76.72H93.68v39.44Zm8.61-29.09V76.72h-1.19V87.07Zm0,29.09V105.83h-1.19v10.32Z"/></svg>
