<svg xmlns="http://www.w3.org/2000/svg" width="29" height="19" viewBox="0 0 29 19"><g><g><g><g><path  d="M4.811 4.778h3.051c.896 0 1.452.476 1.452 1.244 0 1.122-1.015 1.244-1.452 1.244h-3.05zm-.567 3.624h3.618c1.548 0 2.587-.957 2.588-2.38 0-1.402-1.064-2.38-2.588-2.38H4.244a.568.568 0 0 0-.568.568v3.624c0 .313.254.568.568.568z"/></g><g><path d="M8.018 14.436H4.812v-2.799h3.206c1.007 0 1.632.537 1.632 1.4 0 1.156-.888 1.4-1.632 1.4zm0-3.935H4.244a.568.568 0 0 0-.568.568v3.935c0 .314.254.568.568.568h3.774c.816 0 1.505-.229 1.992-.661.507-.452.776-1.1.776-1.874 0-1.493-1.138-2.536-2.768-2.536z"/></g><g><path  d="M8.95 17.672H1.136V1.542h7.529c3.04 0 4.402 1.925 4.402 3.833 0 1.991-1.268 3.145-2.524 3.404a.568.568 0 0 0 .03 1.117c1.613.247 2.83 1.82 2.83 3.658 0 2.54-1.706 4.118-4.453 4.118zm4.253-9.284c.654-.823 1-1.865 1-3.013 0-1.342-.506-2.575-1.424-3.471C11.776.924 10.353.406 8.665.406H.568A.568.568 0 0 0 0 .974V18.24c0 .313.254.568.568.568H8.95c1.722 0 3.159-.53 4.155-1.53.939-.941 1.434-2.229 1.434-3.724 0-1.815-.937-3.435-2.333-4.257a4.25 4.25 0 0 0 .997-.91z"/></g></g></g><g><g><path d="M25.209 2.678h-5.794v-.682h5.794zM25.776.86h-6.928a.568.568 0 0 0-.568.568v1.818c0 .313.254.568.568.568h6.929a.568.568 0 0 0 .567-.568V1.428a.568.568 0 0 0-.567-.568z"/></g></g><g><g><g><path  d="M16.68 11.735v-.01a.568.568 0 1 0-1.135 0v.01a.568.568 0 0 0 1.136 0z"/></g><g><path d="M27.29 6.5c-1.249-1.359-2.962-2.048-5.092-2.048-1.909 0-3.513.657-4.769 1.954-.797.823-1.348 1.856-1.637 3.07a.568.568 0 1 0 1.104.263c.242-1.013.696-1.868 1.35-2.543 1.047-1.082 2.34-1.608 3.952-1.608 1.825 0 3.216.55 4.255 1.68.952 1.037 1.452 2.636 1.488 4.759h-8.23a.568.568 0 0 0-.567.582c.028 1.136.369 2.045 1.012 2.7.65.662 1.467.998 2.43.998.674 0 1.256-.184 1.73-.545.197-.15.373-.335.528-.555h2.52c-.379.662-.879 1.2-1.486 1.6-.872.574-1.992.865-3.33.865-2.141 0-3.67-.633-4.67-1.931a5.614 5.614 0 0 1-.937-1.926.568.568 0 0 0-1.095.3c.235.86.615 1.639 1.13 2.316 1.215 1.577 3.09 2.377 5.572 2.377 1.564 0 2.894-.354 3.954-1.053.76-.5 1.383-1.17 1.852-1.99.164-.287.309-.599.431-.928a.568.568 0 0 0-.532-.766H24.53a.568.568 0 0 0-.497.294 1.554 1.554 0 0 1-.405.493c-.276.21-.617.313-1.043.313-.655 0-1.184-.215-1.618-.658-.334-.34-.544-.785-.636-1.35h8.177c.31 0 .562-.248.568-.557.053-2.704-.548-4.758-1.787-6.106z"/></g><g><path  d="M20.925 8.768c.391-.417.877-.62 1.485-.62.564 0 1.029.193 1.421.589.293.295.483.711.57 1.241h-4.024c.071-.497.253-.896.548-1.21zm-1.151 2.346h5.248a.568.568 0 0 0 .568-.582c-.03-1.114-.35-1.987-.952-2.595a3.032 3.032 0 0 0-2.228-.924c-.925 0-1.704.329-2.313.977-.6.64-.9 1.502-.891 2.562a.568.568 0 0 0 .568.562z"/></g></g></g><g><g><path d="M2.385 8.641a.568.568 0 0 0-.568.568v4.63a.568.568 0 0 0 1.136 0v-4.63a.568.568 0 0 0-.568-.568z"/></g></g><g><g><path  d="M2.385 6.057a.568.568 0 0 0-.568.568v.007a.568.568 0 0 0 1.136 0v-.007a.568.568 0 0 0-.568-.568z"/></g></g></g></svg>
