<svg xmlns="http://www.w3.org/2000/svg" width="28" height="28" viewBox="0 0 28 28"><g><g><g><path d="M13.865 20.377a.528.528 0 0 0-.527.528V20.914a.528.528 0 0 0 1.055 0v-.002-.002-.003-.002a.528.528 0 0 0-.528-.528z"/></g></g><g><g><path d="M22.207.562H5.524A5.18 5.18 0 0 0 .35 5.736v16.683a5.18 5.18 0 0 0 5.174 5.174h8.341a.528.528 0 0 0 .528-.528v-4.092a.528.528 0 1 0-1.055 0v3.564H5.524a4.123 4.123 0 0 1-4.118-4.118V5.736a4.123 4.123 0 0 1 4.118-4.118h16.683a4.123 4.123 0 0 1 4.118 4.118v16.683a4.123 4.123 0 0 1-4.118 4.118h-3.379v-9.318h3.061a.528.528 0 0 0 .526-.476l.38-3.772a.528.528 0 0 0-.526-.58h-3.44v-1.982c0-.358.113-.491.42-.491h2.996a.528.528 0 0 0 .528-.528V5.712a.528.528 0 0 0-.528-.528h-3.934c-2.23 0-3.411.98-4.01 1.8-.838 1.15-.964 2.506-.964 3.212v2.218h-2.586a.528.528 0 0 0-.528.528v3.749c0 .291.236.527.528.527h2.586v1.505a.528.528 0 1 0 1.056 0v-2.032a.528.528 0 0 0-.528-.528h-2.587V13.47h2.587a.528.528 0 0 0 .528-.528v-2.746c0-1.19.382-3.956 3.918-3.956h3.406v2.622H19.25c-.681 0-1.477.405-1.477 1.547v2.51c0 .29.237.527.528.527h3.385l-.273 2.717H18.3a.528.528 0 0 0-.528.528v10.374c0 .291.237.528.528.528h3.907a5.18 5.18 0 0 0 5.174-5.174V5.736A5.18 5.18 0 0 0 22.207.562z"/></g></g><g><g><path d="M3.412 5.973a.528.528 0 0 0-.528.528v4.409a.528.528 0 1 0 1.056 0V6.5a.528.528 0 0 0-.528-.528z"/></g></g><g><g><path d="M3.412 12.672a.528.528 0 0 0-.528.528v.006a.528.528 0 0 0 1.056 0V13.2a.528.528 0 0 0-.528-.528z"/></g></g></g></svg>
