<svg xmlns="http://www.w3.org/2000/svg" width="27" height="28" viewBox="0 0 27 28"><g><g><g><path d="M25.975 19.29a6.871 6.871 0 0 1-6.864 6.862H7.92a6.871 6.871 0 0 1-6.863-6.863V8.097a6.871 6.871 0 0 1 6.863-6.864H19.11a6.871 6.871 0 0 1 6.864 6.864zM19.11.176H7.92c-4.367 0-7.92 3.553-7.92 7.92v11.192c0 4.367 3.553 7.92 7.92 7.92H19.11c4.367 0 7.92-3.553 7.92-7.92V8.097c0-4.367-3.553-7.92-7.92-7.92z"/></g></g><g><g><path  d="M19.111 2.5H7.92a5.603 5.603 0 0 0-5.596 5.597v11.192a5.603 5.603 0 0 0 5.596 5.596h3.22a.528.528 0 1 0 0-1.056H7.92a4.546 4.546 0 0 1-4.54-4.54V8.097a4.545 4.545 0 0 1 4.54-4.54H19.11a4.546 4.546 0 0 1 4.54 4.54v11.192a4.546 4.546 0 0 1-4.54 4.54h-3.185a.528.528 0 1 0 0 1.056h3.185a5.603 5.603 0 0 0 5.597-5.596V8.097A5.603 5.603 0 0 0 19.11 2.5z"/></g></g><g><g><path d="M13.888 23.984a.532.532 0 0 0-.373-.155.532.532 0 0 0-.528.528.532.532 0 0 0 .528.528.532.532 0 0 0 .528-.528.532.532 0 0 0-.155-.373z"/></g></g><g><g><path d="M9.283 8.398a.528.528 0 0 0-.747-.024l-.023.022a.528.528 0 0 0 .725.768l.02-.02a.528.528 0 0 0 .025-.746z"/></g></g><g><g><path d="M13.515 6.407c-1.16 0-2.314.28-3.337.808a.528.528 0 0 0 .484.938 6.16 6.16 0 0 1 2.853-.69 6.237 6.237 0 0 1 6.23 6.23 6.237 6.237 0 0 1-6.23 6.23 6.23 6.23 0 0 1-5.421-9.301.528.528 0 0 0-.918-.522 7.288 7.288 0 0 0-.947 3.593c0 4.017 3.269 7.285 7.286 7.285 4.017 0 7.286-3.268 7.286-7.285s-3.269-7.286-7.286-7.286z"/></g></g><g><g><path  d="M13.515 17.388a3.7 3.7 0 0 1-3.696-3.695 3.7 3.7 0 0 1 3.696-3.696 3.7 3.7 0 0 1 3.696 3.696 3.7 3.7 0 0 1-3.696 3.695zm0-8.447a4.757 4.757 0 0 0-4.751 4.752 4.757 4.757 0 0 0 4.751 4.751 4.757 4.757 0 0 0 4.752-4.751 4.757 4.757 0 0 0-4.752-4.752z"/></g></g><g><g><path d="M20.444 7.714a.951.951 0 0 1 0-1.9.951.951 0 0 1 0 1.9zm0-2.957c-1.106 0-2.006.9-2.006 2.007 0 1.106.9 2.006 2.006 2.006 1.107 0 2.007-.9 2.007-2.006 0-1.107-.9-2.007-2.007-2.007z"/></g></g></g></svg>
