<svg xmlns="http://www.w3.org/2000/svg" width="28" height="28" viewBox="0 0 28 28"><g><g><g><path  d="M23.252 18.739l-.271-.443a11.688 11.688 0 0 0-1.908-2.361l-.907-.864a.237.237 0 0 1-.03-.31l1.238-1.765c.179-.255.344-.523.49-.797l1.059-1.98a1.095 1.095 0 0 0-.027-1.088 1.095 1.095 0 0 0-.946-.537L19.66 8.59h-.001c-.48 0-.915.284-1.108.724l-.243.553a13.675 13.675 0 0 1-2.512 3.825V9.656c0-.587-.478-1.065-1.066-1.065h-3.245a.967.967 0 0 0-.784 1.53l.227.316c.222.31.34.676.34 1.057v2.95c-.4-.465-.888-1.096-1.3-1.822-.632-1.11-1.084-2.407-1.298-3.08a1.358 1.358 0 0 0-1.3-.951H5.05c-.327 0-.629.15-.827.41-.197.262-.26.592-.17.908l.432 1.536c.265.942.63 1.859 1.084 2.725a.535.535 0 1 0 .947-.496c-.42-.801-.756-1.649-1.002-2.519l-.42-1.495H7.37c.128 0 .24.083.28.205.226.714.707 2.09 1.387 3.286.558.982 1.235 1.8 1.705 2.313a.911.911 0 0 0 1.009.235.913.913 0 0 0 .585-.856v-3.349c0-.607-.187-1.188-.54-1.68l-.11-.154h3.039v4.289c0 .314.158.602.421.772.264.17.592.193.878.063l.22-.101a.853.853 0 0 0 .268-.192 14.744 14.744 0 0 0 2.775-4.194l.242-.553a.14.14 0 0 1 .129-.083l2.291.002c.008 0 .02 0 .03.017.01.017.004.027 0 .034l-1.058 1.981a6.7 6.7 0 0 1-.422.686l-1.239 1.766a1.3 1.3 0 0 0 .169 1.699l.907.863a10.621 10.621 0 0 1 1.733 2.145l.271.443c.007.011.027.044.002.088s-.063.044-.075.044h-1.978a.952.952 0 0 1-.68-.287l-1.977-2.034a3.394 3.394 0 0 0-1.71-.951.98.98 0 0 0-.83.194.98.98 0 0 0-.367.768v1.998c0 .172-.14.312-.312.312a7.059 7.059 0 0 1-4.265-1.444 13.1 13.1 0 0 1-1.39-1.23.535.535 0 0 0-.764.749c.468.477.974.924 1.504 1.33a8.134 8.134 0 0 0 4.915 1.664c.762 0 1.382-.62 1.382-1.381v-1.89c.407.108.775.324 1.07.627l1.978 2.034c.377.388.904.61 1.446.61h1.978a1.157 1.157 0 0 0 .985-1.759z"/></g></g><g><g><path d="M7.49 15.251l-.005-.008a.535.535 0 1 0-.866.629l.437-.309-.434.312a.534.534 0 1 0 .869-.624z"/></g></g><g><g><path d="M10.957 24.153H6.598a.535.535 0 0 0 0 1.07h4.359a.535.535 0 0 0 0-1.07z"/></g></g><g><g><path d="M13.39 24.153h-.007a.535.535 0 1 0 0 1.07h.007a.535.535 0 0 0 0-1.07z"/></g></g><g><g><path d="M26.312 24.26a2.463 2.463 0 0 1-2.46 2.46H3.53a2.463 2.463 0 0 1-2.46-2.46V3.938a2.463 2.463 0 0 1 2.46-2.46h20.322a2.463 2.463 0 0 1 2.46 2.46zM23.852.409H3.53a3.533 3.533 0 0 0-3.529 3.53v20.32a3.533 3.533 0 0 0 3.53 3.53h20.32a3.533 3.533 0 0 0 3.53-3.53V3.94a3.533 3.533 0 0 0-3.53-3.53z"/></g></g></g></svg>
